<?xml version="1.0" standalone="no"?>
<!DOCTYPE svg PUBLIC "-//W3C//DTD SVG 20010904//EN"
 "http://www.w3.org/TR/2001/REC-SVG-20010904/DTD/svg10.dtd">
<svg version="1.0" xmlns="http://www.w3.org/2000/svg"
 width="180.000000pt" height="180.000000pt" viewBox="0 0 180.000000 180.000000"
 preserveAspectRatio="xMidYMid meet">
<metadata>
Created by potrace 1.14, written by Peter Selinger 2001-2017
</metadata>
<g transform="translate(0.000000,180.000000) scale(0.100000,-0.100000)"
fill="#000000" stroke="none">
<path d="M1427 1566 c-39 -122 -136 -213 -344 -325 -114 -61 -150 -95 -139
-129 9 -27 55 -41 231 -69 58 -9 160 -56 192 -88 56 -57 65 -152 22 -236 -12
-24 -54 -75 -93 -114 -109 -107 -261 -188 -452 -241 -87 -24 -117 -28 -244
-28 -125 -1 -154 2 -213 22 -112 37 -210 113 -257 200 -15 26 -19 30 -14 12
12 -48 84 -159 131 -200 60 -53 168 -105 255 -123 63 -13 161 -14 286 -3 30 2
65 1 79 -3 74 -20 280 32 388 97 56 34 195 163 195 182 0 5 6 15 13 22 7 7 25
38 39 68 104 222 85 474 -52 668 l-40 58 14 41 c23 66 39 211 26 233 -3 5 -14
-14 -23 -44z"/>
<path d="M1210 1595 c-22 -21 -114 -42 -173 -39 -172 9 -229 4 -327 -27 -185
-58 -341 -205 -414 -389 -28 -71 -45 -178 -42 -265 4 -80 29 -202 47 -220 27
-27 -16 -51 -103 -57 -49 -4 -39 -14 40 -39 124 -40 328 -32 488 19 117 37
215 115 232 185 20 76 -3 93 -216 153 -129 36 -205 69 -234 101 -32 36 -46 83
-36 125 28 128 103 180 383 270 224 71 318 116 369 176 21 24 9 31 -14 7z"/>
</g>
</svg>
